<svg width="32" height="32" viewBox="0 0 32 32" fill="none" xmlns="http://www.w3.org/2000/svg">
<circle cx="16" cy="16" r="16" fill="white"/>
<path d="M28.2188 16.1094C28.2188 22.7972 22.7972 28.2188 16.1094 28.2188C9.42153 28.2188 4 22.7972 4 16.1094C4 9.42153 9.42153 4 16.1094 4C22.7972 4 28.2188 9.42153 28.2188 16.1094ZM14.7087 22.5212L23.6931 13.5368C23.9981 13.2317 23.9981 12.7371 23.6931 12.432L22.5882 11.3271C22.2832 11.022 21.7885 11.022 21.4833 11.3271L14.1562 18.6542L10.7354 15.2333C10.4303 14.9283 9.93564 14.9283 9.63052 15.2333L8.52568 16.3382C8.22061 16.6433 8.22061 17.1379 8.52568 17.443L13.6038 22.5211C13.9089 22.8263 14.4036 22.8263 14.7087 22.5212Z" fill="#C4C4C4"/>
</svg>
