{
  "asset": {
    "copyright": "Copyright 2022 Omabuarts Studio. For more info, visit https://omabuarts.com/license",
    "generator": "Khronos glTF Blender I/O v3.3.32",
    "version": "2.0"
  },
  "scene": 0,
  "scenes": [
    {
      "name": "Scene",
      "nodes": [
        9
      ]
    }
  ],
  "nodes": [
    {
      "name": "tail.01",
      "rotation": [
        -0.72925823926925659,
        -8.1567570475726825E-08,
        -8.69343779186238E-08,
        0.684238612651825
      ],
      "translation": [
        2.0398155697876064E-07,
        -0.052142739295959473,
        -0.46665775775909424
      ]
    },
    {
      "name": "tail.02",
      "rotation": [
        -0.74800491333007812,
        -8.3317715393604885E-08,
        -9.3368512921188085E-08,
        0.66369318962097168
      ],
      "scale": [
        1,
        0.99999994039535522,
        0.99999994039535522
      ],
      "translation": [
        2.2506976904423937E-07,
        -0.19117170572280884,
        -0.5418236255645752
      ]
    },
    {
      "name": "wing.L",
      "rotation": [
        0.087975606322288513,
        0.5089261531829834,
        -0.70485770702362061,
        0.48624080419540405
      ],
      "scale": [
        0.99999994039535522,
        0.99999988079071045,
        0.99999994039535522
      ],
      "translation": [
        0.3578646183013916,
        0.083510220050811768,
        0.38568702340126038
      ]
    },
    {
      "name": "wing.R",
      "rotation": [
        0.087975457310676575,
        -0.50892633199691772,
        0.70485770702362061,
        0.48624065518379211
      ],
      "scale": [
        0.99999988079071045,
        1,
        1
      ],
      "translation": [
        -0.35786479711532593,
        0.083510220050811768,
        0.38568684458732605
      ]
    },
    {
      "name": "feet.L",
      "rotation": [
        1.9470718370939721E-07,
        0,
        -1,
        0
      ],
      "translation": [
        0.18594548106193543,
        -0.27802452445030212,
        0.08586902916431427
      ]
    },
    {
      "name": "feet.R",
      "rotation": [
        4.3711381181310571E-08,
        0,
        -1,
        0
      ],
      "translation": [
        -0.18594551086425781,
        -0.27802452445030212,
        0.0858689397573471
      ]
    },
    {
      "children": [
        0,
        1,
        2,
        3,
        4,
        5
      ],
      "name": "body",
      "rotation": [
        0.7071068286895752,
        8.4293695579162886E-08,
        8.4293695579162886E-08,
        0.7071068286895752
      ],
      "translation": [
        -4.5397591075931282E-18,
        0.08998405933380127,
        0.72176766395568848
      ]
    },
    {
      "children": [
        6
      ],
      "name": "root",
      "rotation": [
        -0.7071068286895752,
        0,
        0,
        0.7071068286895752
      ]
    },
    {
      "mesh": 0,
      "name": "Mesh",
      "skin": 0
    },
    {
      "children": [
        8,
        7
      ],
      "name": "Rig",
      "scale": [
        0.39999997615814209,
        0.39999997615814209,
        0.39999997615814209
      ]
    }
  ],
  "materials": [
    {
      "doubleSided": true,
      "name": "M_AleutianTern",
      "pbrMetallicRoughness": {
        "baseColorTexture": {
          "index": 0
        },
        "metallicFactor": 0,
        "roughnessFactor": 0.5
      }
    }
  ],
  "meshes": [
    {
      "extras": {
        "targetNames": [
          "eyes.blink",
          "eyes.happy",
          "eyes.sad",
          "eyes.sleep",
          "eyes.annoyed",
          "eyes.squint",
          "eyes.shrink",
          "eyes.dead",
          "eyes.lookOut",
          "eyes.lookIn",
          "eyes.lookUp",
          "eyes.lookDown",
          "eyes.excited-1",
          "eyes.excited-2",
          "eyes.rabid",
          "eyes.spin-1",
          "eyes.spin-2",
          "eyes.spin-3",
          "eyes.cry-1",
          "eyes.cry-2",
          "eyes.trauma",
          "teardrop-1.L",
          "teardrop-2.L",
          "sweat-1.L",
          "sweat-2.L",
          "teardrop-1.R",
          "teardrop-2.R",
          "sweat-1.R",
          "sweat-2.R"
        ]
      },
      "name": "AleutianTern_LOD0",
      "primitives": [
        {
          "attributes": {
            "POSITION": 0,
            "NORMAL": 1,
            "TEXCOORD_0": 2,
            "JOINTS_0": 3,
            "WEIGHTS_0": 4
          },
          "indices": 5,
          "material": 0
        }
      ],
      "weights": [
        0,
        0,
        0,
        0,
        0,
        0,
        0,
        0,
        0,
        0,
        0,
        0,
        0,
        0,
        0,
        0,
        0,
        0,
        0,
        0,
        0,
        0,
        0,
        0,
        0,
        0,
        0,
        0,
        0
      ]
    }
  ],
  "textures": [
    {
      "sampler": 0,
      "source": 0
    }
  ],
  "images": [
    {
      "name": "T_AleutianTern",
      "uri": "bird3_image0.png"
    }
  ],
  "skins": [
    {
      "inverseBindMatrices": 6,
      "joints": [
        7,
        6,
        0,
        1,
        2,
        3,
        4,
        5
      ],
      "name": "Rig"
    }
  ],
  "accessors": [
    {
      "bufferView": 0,
      "componentType": 5126,
      "count": 2225,
      "max": [
        0.42246454954147339,
        0.64126300811767578,
        0.35775047540664673
      ],
      "min": [
        -0.42246463894844055,
        0,
        -0.57427519559860229
      ],
      "type": "VEC3"
    },
    {
      "bufferView": 1,
      "componentType": 5126,
      "count": 2225,
      "type": "VEC3"
    },
    {
      "bufferView": 2,
      "componentType": 5126,
      "count": 2225,
      "type": "VEC2"
    },
    {
      "bufferView": 3,
      "componentType": 5121,
      "count": 2225,
      "type": "VEC4"
    },
    {
      "bufferView": 4,
      "componentType": 5126,
      "count": 2225,
      "type": "VEC4"
    },
    {
      "bufferView": 5,
      "componentType": 5123,
      "count": 11808,
      "type": "SCALAR"
    },
    {
      "bufferView": 6,
      "componentType": 5126,
      "count": 8,
      "type": "MAT4"
    }
  ],
  "bufferViews": [
    {
      "buffer": 0,
      "byteLength": 26700,
      "byteOffset": 0,
      "target": 34962
    },
    {
      "buffer": 0,
      "byteLength": 26700,
      "byteOffset": 26700,
      "target": 34962
    },
    {
      "buffer": 0,
      "byteLength": 17800,
      "byteOffset": 53400,
      "target": 34962
    },
    {
      "buffer": 0,
      "byteLength": 8900,
      "byteOffset": 71200,
      "target": 34962
    },
    {
      "buffer": 0,
      "byteLength": 35600,
      "byteOffset": 80100,
      "target": 34962
    },
    {
      "buffer": 0,
      "byteLength": 23616,
      "byteOffset": 115700,
      "target": 34963
    },
    {
      "buffer": 0,
      "byteLength": 512,
      "byteOffset": 139316
    }
  ],
  "samplers": [
    {
      "magFilter": 9729,
      "minFilter": 9987
    }
  ],
  "buffers": [
    {
      "byteLength": 139828,
      "uri": "bird3.bin"
    }
  ]
}