{
  "asset": {
    "copyright": "Copyright 2022 Omabuarts Studio. For more info, visit https://omabuarts.com/license",
    "generator": "Khronos glTF Blender I/O v3.3.32",
    "version": "2.0"
  },
  "scene": 0,
  "scenes": [
    {
      "name": "Scene",
      "nodes": [
        11
      ]
    }
  ],
  "nodes": [
    {
      "name": "tail.01",
      "rotation": [
        -0.86182665824890137,
        -6.046329303899256E-08,
        -1.0273777917291227E-07,
        0.50720298290252686
      ],
      "translation": [
        1.9431986686413438E-07,
        0.0028820633888244629,
        -0.42613375186920166
      ]
    },
    {
      "name": "tail.02",
      "rotation": [
        -0.86574298143386841,
        -6.3681085293865181E-08,
        -1.0722278886987624E-07,
        0.50048893690109253
      ],
      "scale": [
        1,
        1,
        0.99999994039535522
      ],
      "translation": [
        1.798641164896253E-07,
        -0.13328301906585693,
        -0.35221728682518005
      ]
    },
    {
      "name": "hair.01",
      "rotation": [
        -0.42777299880981445,
        -3.9676309460112691E-10,
        -1.0238581893418086E-07,
        0.90388619899749756
      ],
      "scale": [
        1,
        1.0000001192092896,
        1
      ],
      "translation": [
        -6.8036840161767032E-08,
        0.93426740169525146,
        0.5615113377571106
      ]
    },
    {
      "name": "hair.02",
      "rotation": [
        -0.41409873962402344,
        2.7321601673234962E-14,
        -9.8728811792625493E-08,
        0.91023200750350952
      ],
      "translation": [
        1.4587531182996827E-08,
        0.940161943435669,
        0.41688370704650879
      ]
    },
    {
      "name": "wing.L",
      "rotation": [
        0.060001332312822342,
        0.40788683295249939,
        -0.82850849628448486,
        0.3789483904838562
      ],
      "scale": [
        0.99999988079071045,
        0.99999988079071045,
        0.99999982118606567
      ],
      "translation": [
        0.4645686149597168,
        0.25289547443389893,
        0.24826924502849579
      ]
    },
    {
      "name": "wing.R",
      "rotation": [
        0.060001056641340256,
        -0.40788689255714417,
        0.82850855588912964,
        0.37894824147224426
      ],
      "scale": [
        1.0000001192092896,
        1.0000001192092896,
        1
      ],
      "translation": [
        -0.46456873416900635,
        0.25289547443389893,
        0.24826902151107788
      ]
    },
    {
      "name": "feet.L",
      "rotation": [
        1.9470718370939721E-07,
        0,
        -1,
        0
      ],
      "translation": [
        0.18594548106193543,
        -0.27802452445030212,
        0.08586902916431427
      ]
    },
    {
      "name": "feet.R",
      "rotation": [
        4.3711381181310571E-08,
        0,
        -1,
        0
      ],
      "translation": [
        -0.18594551086425781,
        -0.27802452445030212,
        0.0858689397573471
      ]
    },
    {
      "children": [
        0,
        1,
        2,
        3,
        4,
        5,
        6,
        7
      ],
      "name": "body",
      "rotation": [
        0.7071068286895752,
        8.4293695579162886E-08,
        8.4293695579162886E-08,
        0.7071068286895752
      ],
      "translation": [
        -4.5397591075931282E-18,
        0.08998405933380127,
        0.72176766395568848
      ]
    },
    {
      "children": [
        8
      ],
      "name": "root",
      "rotation": [
        -0.7071068286895752,
        0,
        0,
        0.7071068286895752
      ]
    },
    {
      "mesh": 0,
      "name": "Mesh",
      "skin": 0
    },
    {
      "children": [
        10,
        9
      ],
      "name": "Rig",
      "scale": [
        0.39999997615814209,
        0.39999997615814209,
        0.39999997615814209
      ]
    }
  ],
  "materials": [
    {
      "doubleSided": true,
      "name": "M_CollaredFalconet",
      "pbrMetallicRoughness": {
        "baseColorTexture": {
          "index": 0
        },
        "metallicFactor": 0,
        "roughnessFactor": 0.5
      }
    }
  ],
  "meshes": [
    {
      "extras": {
        "targetNames": [
          "eyes.blink",
          "eyes.happy",
          "eyes.sad",
          "eyes.sleep",
          "eyes.annoyed",
          "eyes.squint",
          "eyes.shrink",
          "eyes.dead",
          "eyes.lookOut",
          "eyes.lookIn",
          "eyes.lookUp",
          "eyes.lookDown",
          "eyes.excited-1",
          "eyes.excited-2",
          "eyes.rabid",
          "eyes.spin-1",
          "eyes.spin-2",
          "eyes.spin-3",
          "eyes.cry-1",
          "eyes.cry-2",
          "eyes.trauma",
          "teardrop-1.L",
          "teardrop-2.L",
          "sweat-1.L",
          "sweat-2.L",
          "teardrop-1.R",
          "teardrop-2.R",
          "sweat-1.R",
          "sweat-2.R"
        ]
      },
      "name": "CollaredFalconet_LOD0",
      "primitives": [
        {
          "attributes": {
            "POSITION": 0,
            "NORMAL": 1,
            "TEXCOORD_0": 2,
            "JOINTS_0": 3,
            "WEIGHTS_0": 4
          },
          "indices": 5,
          "material": 0
        }
      ],
      "weights": [
        0,
        0,
        0,
        0,
        0,
        0,
        0,
        0,
        0,
        0,
        0,
        0,
        0,
        0,
        0,
        0,
        0,
        0,
        0,
        0,
        0,
        0,
        0,
        0,
        0,
        0,
        0,
        0,
        0
      ]
    }
  ],
  "textures": [
    {
      "sampler": 0,
      "source": 0
    }
  ],
  "images": [
    {
      "name": "T_CollaredFalconet",
      "uri": "bird17_image0.png"
    }
  ],
  "skins": [
    {
      "inverseBindMatrices": 6,
      "joints": [
        9,
        8,
        0,
        1,
        2,
        3,
        4,
        5,
        6,
        7
      ],
      "name": "Rig"
    }
  ],
  "accessors": [
    {
      "bufferView": 0,
      "componentType": 5126,
      "count": 2565,
      "max": [
        0.39716318249702454,
        0.72290939092636108,
        0.26814204454421997
      ],
      "min": [
        -0.39716318249702454,
        0,
        -0.4686567485332489
      ],
      "type": "VEC3"
    },
    {
      "bufferView": 1,
      "componentType": 5126,
      "count": 2565,
      "type": "VEC3"
    },
    {
      "bufferView": 2,
      "componentType": 5126,
      "count": 2565,
      "type": "VEC2"
    },
    {
      "bufferView": 3,
      "componentType": 5121,
      "count": 2565,
      "type": "VEC4"
    },
    {
      "bufferView": 4,
      "componentType": 5126,
      "count": 2565,
      "type": "VEC4"
    },
    {
      "bufferView": 5,
      "componentType": 5123,
      "count": 13020,
      "type": "SCALAR"
    },
    {
      "bufferView": 6,
      "componentType": 5126,
      "count": 10,
      "type": "MAT4"
    }
  ],
  "bufferViews": [
    {
      "buffer": 0,
      "byteLength": 30780,
      "byteOffset": 0,
      "target": 34962
    },
    {
      "buffer": 0,
      "byteLength": 30780,
      "byteOffset": 30780,
      "target": 34962
    },
    {
      "buffer": 0,
      "byteLength": 20520,
      "byteOffset": 61560,
      "target": 34962
    },
    {
      "buffer": 0,
      "byteLength": 10260,
      "byteOffset": 82080,
      "target": 34962
    },
    {
      "buffer": 0,
      "byteLength": 41040,
      "byteOffset": 92340,
      "target": 34962
    },
    {
      "buffer": 0,
      "byteLength": 26040,
      "byteOffset": 133380,
      "target": 34963
    },
    {
      "buffer": 0,
      "byteLength": 640,
      "byteOffset": 159420
    }
  ],
  "samplers": [
    {
      "magFilter": 9729,
      "minFilter": 9987
    }
  ],
  "buffers": [
    {
      "byteLength": 160060,
      "uri": "bird17.bin"
    }
  ]
}