{
  "asset": {
    "copyright": "Copyright 2022 Omabuarts Studio. For more info, visit https://omabuarts.com/license",
    "generator": "Khronos glTF Blender I/O v3.3.32",
    "version": "2.0"
  },
  "scene": 0,
  "scenes": [
    {
      "name": "Scene",
      "nodes": [
        12
      ]
    }
  ],
  "nodes": [
    {
      "name": "tail.01",
      "rotation": [
        -0.797422468662262,
        -7.1933420997538633E-08,
        -9.5060173066485731E-08,
        0.60342144966125488
      ],
      "scale": [
        1,
        1.0000001192092896,
        1.0000001192092896
      ],
      "translation": [
        2.590240342215111E-07,
        0.11547607183456421,
        -0.69752264022827148
      ]
    },
    {
      "name": "tail.02",
      "rotation": [
        -0.81973004341125488,
        -1.4076982779442915E-07,
        -4.2155052781822633E-09,
        0.57275015115737915
      ],
      "scale": [
        1,
        1.0000001192092896,
        1.0000001192092896
      ],
      "translation": [
        2.5164393946397468E-07,
        -0.011841773986816406,
        -0.65328383445739746
      ]
    },
    {
      "name": "hair.01",
      "rotation": [
        -0.72381222248077393,
        -4.6168999179307946E-10,
        -1.7303197807905235E-07,
        0.68999701738357544
      ],
      "translation": [
        2.2467455451646856E-08,
        1.4255390167236328,
        0.18190877139568329
      ]
    },
    {
      "name": "hair.02",
      "rotation": [
        -0.846244752407074,
        2.66723017912536E-14,
        -2.0176044301933871E-07,
        0.53279447555541992
      ],
      "translation": [
        7.8639537548497174E-08,
        1.3290684223175049,
        0.14823010563850403
      ]
    },
    {
      "name": "wing.L",
      "rotation": [
        0.096235692501068115,
        0.55870074033737183,
        -0.711510956287384,
        0.41514384746551514
      ],
      "scale": [
        0.99999994039535522,
        0.99999988079071045,
        1
      ],
      "translation": [
        0.42318454384803772,
        0.26553386449813843,
        0.47195276618003845
      ]
    },
    {
      "name": "wing.R",
      "rotation": [
        0.096235424280166626,
        -0.55870085954666138,
        0.711510956287384,
        0.4151436984539032
      ],
      "scale": [
        1,
        1.0000001192092896,
        1.0000001192092896
      ],
      "translation": [
        -0.42318478226661682,
        0.26553386449813843,
        0.47195255756378174
      ]
    },
    {
      "name": "feet.L",
      "rotation": [
        1.9470718370939721E-07,
        0,
        -1,
        0
      ],
      "translation": [
        0.18594548106193543,
        -0.20633608102798462,
        0.08586902916431427
      ]
    },
    {
      "name": "feet.R",
      "rotation": [
        4.3711381181310571E-08,
        0,
        -1,
        0
      ],
      "translation": [
        -0.18594551086425781,
        -0.20633608102798462,
        0.0858689397573471
      ]
    },
    {
      "name": "hair.03",
      "rotation": [
        -0.833292543888092,
        -1.3180545010982314E-07,
        1.9279159364326941E-14,
        0.55283224582672119
      ],
      "translation": [
        1.2967876727998373E-07,
        -0.12582755088806152,
        -0.54391223192214966
      ]
    },
    {
      "children": [
        0,
        1,
        2,
        3,
        4,
        5,
        6,
        7,
        8
      ],
      "name": "body",
      "rotation": [
        0.7071068286895752,
        8.4293695579162886E-08,
        8.4293695579162886E-08,
        0.7071068286895752
      ],
      "translation": [
        -4.5397591075931282E-18,
        0.08998405933380127,
        0.75864744186401367
      ]
    },
    {
      "children": [
        9
      ],
      "name": "root",
      "rotation": [
        -0.7071068286895752,
        0,
        0,
        0.7071068286895752
      ]
    },
    {
      "mesh": 0,
      "name": "Mesh",
      "skin": 0
    },
    {
      "children": [
        11,
        10
      ],
      "name": "Rig",
      "scale": [
        0.39999997615814209,
        0.39999997615814209,
        0.39999997615814209
      ]
    }
  ],
  "materials": [
    {
      "doubleSided": true,
      "name": "M_AbbottBooby",
      "pbrMetallicRoughness": {
        "baseColorTexture": {
          "index": 0
        },
        "metallicFactor": 0,
        "roughnessFactor": 0.5
      }
    }
  ],
  "meshes": [
    {
      "extras": {
        "targetNames": [
          "eyes.blink",
          "eyes.happy",
          "eyes.sad",
          "eyes.sleep",
          "eyes.annoyed",
          "eyes.squint",
          "eyes.shrink",
          "eyes.dead",
          "eyes.lookOut",
          "eyes.lookIn",
          "eyes.lookUp",
          "eyes.lookDown",
          "eyes.excited-1",
          "eyes.excited-2",
          "eyes.rabid",
          "eyes.spin-1",
          "eyes.spin-2",
          "eyes.spin-3",
          "eyes.cry-1",
          "eyes.cry-2",
          "eyes.trauma",
          "teardrop-1.L",
          "teardrop-2.L",
          "sweat-1.L",
          "sweat-2.L",
          "teardrop-1.R",
          "teardrop-2.R",
          "sweat-1.R",
          "sweat-2.R"
        ]
      },
      "name": "AbbottBooby_LOD0",
      "primitives": [
        {
          "attributes": {
            "POSITION": 0,
            "NORMAL": 1,
            "TEXCOORD_0": 2,
            "JOINTS_0": 3,
            "WEIGHTS_0": 4
          },
          "indices": 5,
          "material": 0
        }
      ],
      "weights": [
        0,
        0,
        0,
        0,
        0,
        0,
        0,
        0,
        0,
        0,
        0,
        0,
        0,
        0,
        0,
        0,
        0,
        0,
        0,
        0,
        0,
        0,
        0,
        0,
        0,
        0,
        0,
        0,
        0
      ]
    }
  ],
  "textures": [
    {
      "sampler": 0,
      "source": 0
    }
  ],
  "images": [
    {
      "name": "T_AbbottBooby",
      "uri": "bird1_image0.png"
    }
  ],
  "skins": [
    {
      "inverseBindMatrices": 6,
      "joints": [
        10,
        9,
        0,
        1,
        2,
        3,
        4,
        5,
        6,
        7,
        8
      ],
      "name": "Rig"
    }
  ],
  "accessors": [
    {
      "bufferView": 0,
      "componentType": 5126,
      "count": 2594,
      "max": [
        0.46766367554664612,
        0.91254550218582153,
        0.38323685526847839
      ],
      "min": [
        -0.46766367554664612,
        0,
        -0.55823332071304321
      ],
      "type": "VEC3"
    },
    {
      "bufferView": 1,
      "componentType": 5126,
      "count": 2594,
      "type": "VEC3"
    },
    {
      "bufferView": 2,
      "componentType": 5126,
      "count": 2594,
      "type": "VEC2"
    },
    {
      "bufferView": 3,
      "componentType": 5121,
      "count": 2594,
      "type": "VEC4"
    },
    {
      "bufferView": 4,
      "componentType": 5126,
      "count": 2594,
      "type": "VEC4"
    },
    {
      "bufferView": 5,
      "componentType": 5123,
      "count": 13680,
      "type": "SCALAR"
    },
    {
      "bufferView": 6,
      "componentType": 5126,
      "count": 11,
      "type": "MAT4"
    }
  ],
  "bufferViews": [
    {
      "buffer": 0,
      "byteLength": 31128,
      "byteOffset": 0,
      "target": 34962
    },
    {
      "buffer": 0,
      "byteLength": 31128,
      "byteOffset": 31128,
      "target": 34962
    },
    {
      "buffer": 0,
      "byteLength": 20752,
      "byteOffset": 62256,
      "target": 34962
    },
    {
      "buffer": 0,
      "byteLength": 10376,
      "byteOffset": 83008,
      "target": 34962
    },
    {
      "buffer": 0,
      "byteLength": 41504,
      "byteOffset": 93384,
      "target": 34962
    },
    {
      "buffer": 0,
      "byteLength": 27360,
      "byteOffset": 134888,
      "target": 34963
    },
    {
      "buffer": 0,
      "byteLength": 704,
      "byteOffset": 162248
    }
  ],
  "samplers": [
    {
      "magFilter": 9729,
      "minFilter": 9987
    }
  ],
  "buffers": [
    {
      "byteLength": 162952,
      "uri": "bird1.bin"
    }
  ]
}