{
  "asset": {
    "copyright": "Copyright 2022 Omabuarts Studio. For more info, visit https://omabuarts.com/license",
    "generator": "Khronos glTF Blender I/O v3.3.32",
    "version": "2.0"
  },
  "scene": 0,
  "scenes": [
    {
      "name": "Scene",
      "nodes": [
        11
      ]
    }
  ],
  "nodes": [
    {
      "name": "tail.01",
      "rotation": [
        -0.88067346811294556,
        -5.6472245546501654E-08,
        -1.0498448688167628E-07,
        0.473723828792572
      ],
      "scale": [
        1,
        1.0000001192092896,
        1.0000002384185791
      ],
      "translation": [
        2.3585283770444221E-07,
        -0.12238025665283203,
        -0.60033571720123291
      ]
    },
    {
      "name": "tail.02",
      "rotation": [
        -0.89791184663772583,
        -5.8286520498995742E-08,
        -1.1285298029406476E-07,
        0.440175324678421
      ],
      "translation": [
        2.25008662368964E-07,
        -0.22824928164482117,
        -0.541567325592041
      ]
    },
    {
      "name": "hair.01",
      "rotation": [
        -0.64306282997131348,
        -7.1754463482065489E-10,
        -1.5403570330363436E-07,
        0.76581346988677979
      ],
      "translation": [
        1.1747182782073651E-08,
        0.82995748519897461,
        0.22687286138534546
      ]
    },
    {
      "name": "hair.02",
      "rotation": [
        -0.70833975076675415,
        0,
        -1.68881328477255E-07,
        0.70587170124053955
      ],
      "translation": [
        6.6942632770405908E-08,
        0.77002990245819092,
        0.19729048013687134
      ]
    },
    {
      "name": "wing.L",
      "rotation": [
        0.052268229424953461,
        0.58587837219238281,
        -0.71730095148086548,
        0.37348896265029907
      ],
      "scale": [
        1,
        1.0000001192092896,
        1
      ],
      "translation": [
        0.50108617544174194,
        0.088029026985168457,
        0.18144714832305908
      ]
    },
    {
      "name": "wing.R",
      "rotation": [
        0.0522681325674057,
        -0.58587855100631714,
        0.7173008918762207,
        0.37348878383636475
      ],
      "translation": [
        -0.50108629465103149,
        0.088029026985168457,
        0.18144689500331879
      ]
    },
    {
      "name": "feet.L",
      "rotation": [
        1.9470718370939721E-07,
        0,
        -1,
        0
      ],
      "translation": [
        0.18594548106193543,
        -0.27802452445030212,
        0.08586902916431427
      ]
    },
    {
      "name": "feet.R",
      "rotation": [
        4.3711381181310571E-08,
        0,
        -1,
        0
      ],
      "translation": [
        -0.18594551086425781,
        -0.27802452445030212,
        0.0858689397573471
      ]
    },
    {
      "children": [
        0,
        1,
        2,
        3,
        4,
        5,
        6,
        7
      ],
      "name": "body",
      "rotation": [
        0.7071068286895752,
        8.4293695579162886E-08,
        8.4293695579162886E-08,
        0.7071068286895752
      ],
      "translation": [
        -4.5397591075931282E-18,
        0.08998405933380127,
        0.72176766395568848
      ]
    },
    {
      "children": [
        8
      ],
      "name": "root",
      "rotation": [
        -0.7071068286895752,
        0,
        0,
        0.7071068286895752
      ]
    },
    {
      "mesh": 0,
      "name": "Mesh",
      "skin": 0
    },
    {
      "children": [
        10,
        9
      ],
      "name": "Rig",
      "scale": [
        0.39999997615814209,
        0.39999997615814209,
        0.39999997615814209
      ]
    }
  ],
  "materials": [
    {
      "doubleSided": true,
      "name": "M_Babbler",
      "pbrMetallicRoughness": {
        "baseColorTexture": {
          "index": 0
        },
        "metallicFactor": 0,
        "roughnessFactor": 0.5
      }
    }
  ],
  "meshes": [
    {
      "extras": {
        "targetNames": [
          "eyes.blink",
          "eyes.happy",
          "eyes.sad",
          "eyes.sleep",
          "eyes.annoyed",
          "eyes.squint",
          "eyes.shrink",
          "eyes.dead",
          "eyes.lookOut",
          "eyes.lookIn",
          "eyes.lookUp",
          "eyes.lookDown",
          "eyes.excited-1",
          "eyes.excited-2",
          "eyes.rabid",
          "eyes.spin-1",
          "eyes.spin-2",
          "eyes.spin-3",
          "eyes.cry-1",
          "eyes.cry-2",
          "eyes.trauma",
          "teardrop-1.L",
          "teardrop-2.L",
          "sweat-1.L",
          "sweat-2.L",
          "teardrop-1.R",
          "teardrop-2.R",
          "sweat-1.R",
          "sweat-2.R"
        ]
      },
      "name": "Babbler_LOD0",
      "primitives": [
        {
          "attributes": {
            "POSITION": 0,
            "NORMAL": 1,
            "TEXCOORD_0": 2,
            "JOINTS_0": 3,
            "WEIGHTS_0": 4
          },
          "indices": 5,
          "material": 0
        }
      ],
      "weights": [
        0,
        0,
        0,
        0,
        0,
        0,
        0,
        0,
        0,
        0,
        0,
        0,
        0,
        0,
        0,
        0,
        0,
        0,
        0,
        0,
        0,
        0,
        0,
        0,
        0,
        0,
        0,
        0,
        0
      ]
    }
  ],
  "textures": [
    {
      "sampler": 0,
      "source": 0
    }
  ],
  "images": [
    {
      "name": "T_Babbler",
      "uri": "bird7_image0.png"
    }
  ],
  "skins": [
    {
      "inverseBindMatrices": 6,
      "joints": [
        9,
        8,
        0,
        1,
        2,
        3,
        4,
        5,
        6,
        7
      ],
      "name": "Rig"
    }
  ],
  "accessors": [
    {
      "bufferView": 0,
      "componentType": 5126,
      "count": 2844,
      "max": [
        0.37644132971763611,
        0.64275652170181274,
        0.32028263807296753
      ],
      "min": [
        -0.37644132971763611,
        0,
        -0.43532532453536987
      ],
      "type": "VEC3"
    },
    {
      "bufferView": 1,
      "componentType": 5126,
      "count": 2844,
      "type": "VEC3"
    },
    {
      "bufferView": 2,
      "componentType": 5126,
      "count": 2844,
      "type": "VEC2"
    },
    {
      "bufferView": 3,
      "componentType": 5121,
      "count": 2844,
      "type": "VEC4"
    },
    {
      "bufferView": 4,
      "componentType": 5126,
      "count": 2844,
      "type": "VEC4"
    },
    {
      "bufferView": 5,
      "componentType": 5123,
      "count": 14256,
      "type": "SCALAR"
    },
    {
      "bufferView": 6,
      "componentType": 5126,
      "count": 10,
      "type": "MAT4"
    }
  ],
  "bufferViews": [
    {
      "buffer": 0,
      "byteLength": 34128,
      "byteOffset": 0,
      "target": 34962
    },
    {
      "buffer": 0,
      "byteLength": 34128,
      "byteOffset": 34128,
      "target": 34962
    },
    {
      "buffer": 0,
      "byteLength": 22752,
      "byteOffset": 68256,
      "target": 34962
    },
    {
      "buffer": 0,
      "byteLength": 11376,
      "byteOffset": 91008,
      "target": 34962
    },
    {
      "buffer": 0,
      "byteLength": 45504,
      "byteOffset": 102384,
      "target": 34962
    },
    {
      "buffer": 0,
      "byteLength": 28512,
      "byteOffset": 147888,
      "target": 34963
    },
    {
      "buffer": 0,
      "byteLength": 640,
      "byteOffset": 176400
    }
  ],
  "samplers": [
    {
      "magFilter": 9729,
      "minFilter": 9987
    }
  ],
  "buffers": [
    {
      "byteLength": 177040,
      "uri": "bird7.bin"
    }
  ]
}